<svg class="main-svg" xmlns="http://www.w3.org/2000/svg" xmlns:xlink="http://www.w3.org/1999/xlink" width="700" height="500" viewBox="0 0 700 500"><rect x="0" y="0" width="700" height="500" style="fill: rgb(255, 255, 255); fill-opacity: 1;"/><defs id="defs-c5ba59"><g class="clips"><clipPath id="clipc5ba59xyplot" class="plotclip"><rect width="529" height="320"/></clipPath><clipPath class="axesclip" id="clipc5ba59x"><rect x="91" y="0" width="529" height="500"/></clipPath><clipPath class="axesclip" id="clipc5ba59y"><rect x="0" y="100" width="700" height="320"/></clipPath><clipPath class="axesclip" id="clipc5ba59xy"><rect x="91" y="100" width="529" height="320"/></clipPath></g><g class="gradients"/></defs><g class="bglayer"><rect class="bg" x="91" y="100" width="529" height="320" style="fill: rgb(229, 236, 246); fill-opacity: 1; stroke-width: 0;"/></g><g class="layer-below"><g class="imagelayer"/><g class="shapelayer"/></g><g class="cartesianlayer"><g class="subplot xy"><g class="layer-subplot"><g class="shapelayer"/><g class="imagelayer"/></g><g class="gridlayer"><g class="x"><path class="xgrid crisp" transform="translate(131.39,0)" d="M0,100v320" style="stroke: rgb(255, 255, 255); stroke-opacity: 1; stroke-width: 1px;"/><path class="xgrid crisp" transform="translate(186.18,0)" d="M0,100v320" style="stroke: rgb(255, 255, 255); stroke-opacity: 1; stroke-width: 1px;"/><path class="xgrid crisp" transform="translate(240.98,0)" d="M0,100v320" style="stroke: rgb(255, 255, 255); stroke-opacity: 1; stroke-width: 1px;"/><path class="xgrid crisp" transform="translate(313.41999999999996,0)" d="M0,100v320" style="stroke: rgb(255, 255, 255); stroke-opacity: 1; stroke-width: 1px;"/><path class="xgrid crisp" transform="translate(368.22,0)" d="M0,100v320" style="stroke: rgb(255, 255, 255); stroke-opacity: 1; stroke-width: 1px;"/><path class="xgrid crisp" transform="translate(423.02,0)" d="M0,100v320" style="stroke: rgb(255, 255, 255); stroke-opacity: 1; stroke-width: 1px;"/><path class="xgrid crisp" transform="translate(495.46,0)" d="M0,100v320" style="stroke: rgb(255, 255, 255); stroke-opacity: 1; stroke-width: 1px;"/><path class="xgrid crisp" transform="translate(550.26,0)" d="M0,100v320" style="stroke: rgb(255, 255, 255); stroke-opacity: 1; stroke-width: 1px;"/><path class="xgrid crisp" transform="translate(605.06,0)" d="M0,100v320" style="stroke: rgb(255, 255, 255); stroke-opacity: 1; stroke-width: 1px;"/></g><g class="y"><path class="ygrid crisp" transform="translate(0,404)" d="M91,0h529" style="stroke: rgb(255, 255, 255); stroke-opacity: 1; stroke-width: 1px;"/><path class="ygrid crisp" transform="translate(0,389.02)" d="M91,0h529" style="stroke: rgb(255, 255, 255); stroke-opacity: 1; stroke-width: 1px;"/><path class="ygrid crisp" transform="translate(0,377.39)" d="M91,0h529" style="stroke: rgb(255, 255, 255); stroke-opacity: 1; stroke-width: 1px;"/><path class="ygrid crisp" transform="translate(0,367.9)" d="M91,0h529" style="stroke: rgb(255, 255, 255); stroke-opacity: 1; stroke-width: 1px;"/><path class="ygrid crisp" transform="translate(0,359.87)" d="M91,0h529" style="stroke: rgb(255, 255, 255); stroke-opacity: 1; stroke-width: 1px;"/><path class="ygrid crisp" transform="translate(0,352.90999999999997)" d="M91,0h529" style="stroke: rgb(255, 255, 255); stroke-opacity: 1; stroke-width: 1px;"/><path class="ygrid crisp" transform="translate(0,346.78)" d="M91,0h529" style="stroke: rgb(255, 255, 255); stroke-opacity: 1; stroke-width: 1px;"/><path class="ygrid crisp" transform="translate(0,341.28999999999996)" d="M91,0h529" style="stroke: rgb(255, 255, 255); stroke-opacity: 1; stroke-width: 1px;"/><path class="ygrid crisp" transform="translate(0,305.19)" d="M91,0h529" style="stroke: rgb(255, 255, 255); stroke-opacity: 1; stroke-width: 1px;"/><path class="ygrid crisp" transform="translate(0,284.07)" d="M91,0h529" style="stroke: rgb(255, 255, 255); stroke-opacity: 1; stroke-width: 1px;"/><path class="ygrid crisp" transform="translate(0,269.09000000000003)" d="M91,0h529" style="stroke: rgb(255, 255, 255); stroke-opacity: 1; stroke-width: 1px;"/><path class="ygrid crisp" transform="translate(0,257.46000000000004)" d="M91,0h529" style="stroke: rgb(255, 255, 255); stroke-opacity: 1; stroke-width: 1px;"/><path class="ygrid crisp" transform="translate(0,247.97)" d="M91,0h529" style="stroke: rgb(255, 255, 255); stroke-opacity: 1; stroke-width: 1px;"/><path class="ygrid crisp" transform="translate(0,239.94)" d="M91,0h529" style="stroke: rgb(255, 255, 255); stroke-opacity: 1; stroke-width: 1px;"/><path class="ygrid crisp" transform="translate(0,232.98)" d="M91,0h529" style="stroke: rgb(255, 255, 255); stroke-opacity: 1; stroke-width: 1px;"/><path class="ygrid crisp" transform="translate(0,226.85)" d="M91,0h529" style="stroke: rgb(255, 255, 255); stroke-opacity: 1; stroke-width: 1px;"/><path class="ygrid crisp" transform="translate(0,221.36)" d="M91,0h529" style="stroke: rgb(255, 255, 255); stroke-opacity: 1; stroke-width: 1px;"/><path class="ygrid crisp" transform="translate(0,185.26)" d="M91,0h529" style="stroke: rgb(255, 255, 255); stroke-opacity: 1; stroke-width: 1px;"/><path class="ygrid crisp" transform="translate(0,164.14)" d="M91,0h529" style="stroke: rgb(255, 255, 255); stroke-opacity: 1; stroke-width: 1px;"/><path class="ygrid crisp" transform="translate(0,149.16)" d="M91,0h529" style="stroke: rgb(255, 255, 255); stroke-opacity: 1; stroke-width: 1px;"/><path class="ygrid crisp" transform="translate(0,137.53)" d="M91,0h529" style="stroke: rgb(255, 255, 255); stroke-opacity: 1; stroke-width: 1px;"/><path class="ygrid crisp" transform="translate(0,128.04)" d="M91,0h529" style="stroke: rgb(255, 255, 255); stroke-opacity: 1; stroke-width: 1px;"/><path class="ygrid crisp" transform="translate(0,120.01)" d="M91,0h529" style="stroke: rgb(255, 255, 255); stroke-opacity: 1; stroke-width: 1px;"/><path class="ygrid crisp" transform="translate(0,113.05)" d="M91,0h529" style="stroke: rgb(255, 255, 255); stroke-opacity: 1; stroke-width: 1px;"/><path class="ygrid crisp" transform="translate(0,106.92)" d="M91,0h529" style="stroke: rgb(255, 255, 255); stroke-opacity: 1; stroke-width: 1px;"/><path class="ygrid crisp" transform="translate(0,101.43)" d="M91,0h529" style="stroke: rgb(255, 255, 255); stroke-opacity: 1; stroke-width: 1px;"/></g></g><g class="zerolinelayer"/><path class="xlines-below"/><path class="ylines-below"/><g class="overlines-below"/><g class="xaxislayer-below"/><g class="yaxislayer-below"/><g class="overaxes-below"/><g class="plot" transform="translate(91, 100)" clip-path="url('#clipc5ba59xyplot')"><g class="scatterlayer mlayer"><g class="trace scatter trace697fcc" style="stroke-miterlimit: 2; opacity: 1;"><g class="fills"/><g class="errorbars"/><g class="lines"><path class="js-line" d="M-10580,6720L-9739.578667793423,6719.999999999534L161.03,197.91L189.57,184.07L214.09,173.15L227.03,169.09L286.89,126.27L296.12,119.32L321.47,103.1L338.84,90.75L372.56,67.55L376.71,67.55L378.93,70.8L384.62,68.48L391.99,64.14L396.83,67.92L408.92,62.26L414.26,63.11L423.73,63.45L432.52,54.5L439.31,47.24L444.91,43.6L449.78,41.88L455.21,37.95L461.14,38.06L466.22,34.89L487.7,23.39L494.67,17.75L497.16,17.97L501.49,16L504.31,16.83L507.3,16.83L510.71,19.34L512.5,24.68L515.35,40.98L517.77,39.55L520.95,47.36L522.98,48.77L524.63,53.36L527.68,47.24L529,45.75" style="vector-effect: non-scaling-stroke; fill: none; stroke: rgb(99, 110, 250); stroke-opacity: 1; stroke-width: 2px; opacity: 1;"/></g><g class="points"/><g class="text"/></g></g></g><g class="overplot"/><path class="xlines-above crisp" d="M0,0" style="fill: none;"/><path class="ylines-above crisp" d="M0,0" style="fill: none;"/><g class="overlines-above"/><g class="xaxislayer-above"><g class="xtick"><text text-anchor="middle" x="0" y="434.5" transform="translate(131.39,0)" style="font-family: 'Courier New', monospace; font-size: 13.5px; fill: rgb(127, 127, 127); fill-opacity: 1; white-space: pre;">5</text></g><g class="xtick"><text text-anchor="middle" x="0" y="439" transform="translate(186.18,0)" style="font-family: 'Courier New', monospace; font-size: 18px; fill: rgb(127, 127, 127); fill-opacity: 1; white-space: pre;">10</text></g><g class="xtick"><text text-anchor="middle" x="0" y="434.5" transform="translate(240.98,0)" style="font-family: 'Courier New', monospace; font-size: 13.5px; fill: rgb(127, 127, 127); fill-opacity: 1; white-space: pre;">2</text></g><g class="xtick"><text text-anchor="middle" x="0" y="434.5" transform="translate(313.41999999999996,0)" style="font-family: 'Courier New', monospace; font-size: 13.5px; fill: rgb(127, 127, 127); fill-opacity: 1; white-space: pre;">5</text></g><g class="xtick"><text text-anchor="middle" x="0" y="439" transform="translate(368.22,0)" style="font-family: 'Courier New', monospace; font-size: 18px; fill: rgb(127, 127, 127); fill-opacity: 1; white-space: pre;">100</text></g><g class="xtick"><text text-anchor="middle" x="0" y="434.5" transform="translate(423.02,0)" style="font-family: 'Courier New', monospace; font-size: 13.5px; fill: rgb(127, 127, 127); fill-opacity: 1; white-space: pre;">2</text></g><g class="xtick"><text text-anchor="middle" x="0" y="434.5" transform="translate(495.46,0)" style="font-family: 'Courier New', monospace; font-size: 13.5px; fill: rgb(127, 127, 127); fill-opacity: 1; white-space: pre;">5</text></g><g class="xtick"><text text-anchor="middle" x="0" y="439" transform="translate(550.26,0)" style="font-family: 'Courier New', monospace; font-size: 18px; fill: rgb(127, 127, 127); fill-opacity: 1; white-space: pre;">1000</text></g><g class="xtick"><text text-anchor="middle" x="0" y="434.5" transform="translate(605.06,0)" style="font-family: 'Courier New', monospace; font-size: 13.5px; fill: rgb(127, 127, 127); fill-opacity: 1; white-space: pre;">2</text></g></g><g class="yaxislayer-above"><g class="ytick"><text text-anchor="end" x="90" y="4.725" transform="translate(0,404)" style="font-family: 'Courier New', monospace; font-size: 13.5px; fill: rgb(127, 127, 127); fill-opacity: 1; white-space: pre;">3</text></g><g class="ytick"><text text-anchor="end" x="90" y="4.725" transform="translate(0,389.02)" style="font-family: 'Courier New', monospace; font-size: 13.5px; fill: rgb(127, 127, 127); fill-opacity: 1; white-space: pre;">4</text></g><g class="ytick"><text text-anchor="end" x="90" y="4.725" transform="translate(0,377.39)" style="font-family: 'Courier New', monospace; font-size: 13.5px; fill: rgb(127, 127, 127); fill-opacity: 1; white-space: pre;">5</text></g><g class="ytick"><text text-anchor="end" x="90" y="4.725" transform="translate(0,367.9)" style="font-family: 'Courier New', monospace; font-size: 13.5px; fill: rgb(127, 127, 127); fill-opacity: 1; white-space: pre;">6</text></g><g class="ytick"><text text-anchor="end" x="90" y="4.725" transform="translate(0,359.87)" style="font-family: 'Courier New', monospace; font-size: 13.5px; fill: rgb(127, 127, 127); fill-opacity: 1; white-space: pre;">7</text></g><g class="ytick"><text text-anchor="end" x="90" y="4.725" transform="translate(0,352.90999999999997)" style="font-family: 'Courier New', monospace; font-size: 13.5px; fill: rgb(127, 127, 127); fill-opacity: 1; white-space: pre;">8</text></g><g class="ytick"><text text-anchor="end" x="90" y="4.725" transform="translate(0,346.78)" style="font-family: 'Courier New', monospace; font-size: 13.5px; fill: rgb(127, 127, 127); fill-opacity: 1; white-space: pre;">9</text></g><g class="ytick"><text text-anchor="end" x="85.5" y="3.3" transform="translate(0,341.28999999999996)" style="font-family: 'Courier New', monospace; font-size: 18px; fill: rgb(127, 127, 127); fill-opacity: 1; white-space: pre;">10</text></g><g class="ytick"><text text-anchor="end" x="90" y="4.725" transform="translate(0,305.19)" style="font-family: 'Courier New', monospace; font-size: 13.5px; fill: rgb(127, 127, 127); fill-opacity: 1; white-space: pre;">2</text></g><g class="ytick"><text text-anchor="end" x="90" y="4.725" transform="translate(0,284.07)" style="font-family: 'Courier New', monospace; font-size: 13.5px; fill: rgb(127, 127, 127); fill-opacity: 1; white-space: pre;">3</text></g><g class="ytick"><text text-anchor="end" x="90" y="4.725" transform="translate(0,269.09000000000003)" style="font-family: 'Courier New', monospace; font-size: 13.5px; fill: rgb(127, 127, 127); fill-opacity: 1; white-space: pre;">4</text></g><g class="ytick"><text text-anchor="end" x="90" y="4.725" transform="translate(0,257.46000000000004)" style="font-family: 'Courier New', monospace; font-size: 13.5px; fill: rgb(127, 127, 127); fill-opacity: 1; white-space: pre;">5</text></g><g class="ytick"><text text-anchor="end" x="90" y="4.725" transform="translate(0,247.97)" style="font-family: 'Courier New', monospace; font-size: 13.5px; fill: rgb(127, 127, 127); fill-opacity: 1; white-space: pre;">6</text></g><g class="ytick"><text text-anchor="end" x="90" y="4.725" transform="translate(0,239.94)" style="font-family: 'Courier New', monospace; font-size: 13.5px; fill: rgb(127, 127, 127); fill-opacity: 1; white-space: pre;">7</text></g><g class="ytick"><text text-anchor="end" x="90" y="4.725" transform="translate(0,232.98)" style="font-family: 'Courier New', monospace; font-size: 13.5px; fill: rgb(127, 127, 127); fill-opacity: 1; white-space: pre;">8</text></g><g class="ytick"><text text-anchor="end" x="90" y="4.725" transform="translate(0,226.85)" style="font-family: 'Courier New', monospace; font-size: 13.5px; fill: rgb(127, 127, 127); fill-opacity: 1; white-space: pre;">9</text></g><g class="ytick"><text text-anchor="end" x="85.5" y="3.3" transform="translate(0,221.36)" style="font-family: 'Courier New', monospace; font-size: 18px; fill: rgb(127, 127, 127); fill-opacity: 1; white-space: pre;">100</text></g><g class="ytick"><text text-anchor="end" x="90" y="4.725" transform="translate(0,185.26)" style="font-family: 'Courier New', monospace; font-size: 13.5px; fill: rgb(127, 127, 127); fill-opacity: 1; white-space: pre;">2</text></g><g class="ytick"><text text-anchor="end" x="90" y="4.725" transform="translate(0,164.14)" style="font-family: 'Courier New', monospace; font-size: 13.5px; fill: rgb(127, 127, 127); fill-opacity: 1; white-space: pre;">3</text></g><g class="ytick"><text text-anchor="end" x="90" y="4.725" transform="translate(0,149.16)" style="font-family: 'Courier New', monospace; font-size: 13.5px; fill: rgb(127, 127, 127); fill-opacity: 1; white-space: pre;">4</text></g><g class="ytick"><text text-anchor="end" x="90" y="4.725" transform="translate(0,137.53)" style="font-family: 'Courier New', monospace; font-size: 13.5px; fill: rgb(127, 127, 127); fill-opacity: 1; white-space: pre;">5</text></g><g class="ytick"><text text-anchor="end" x="90" y="4.725" transform="translate(0,128.04)" style="font-family: 'Courier New', monospace; font-size: 13.5px; fill: rgb(127, 127, 127); fill-opacity: 1; white-space: pre;">6</text></g><g class="ytick"><text text-anchor="end" x="90" y="4.725" transform="translate(0,120.01)" style="font-family: 'Courier New', monospace; font-size: 13.5px; fill: rgb(127, 127, 127); fill-opacity: 1; white-space: pre;">7</text></g><g class="ytick"><text text-anchor="end" x="90" y="4.725" transform="translate(0,113.05)" style="font-family: 'Courier New', monospace; font-size: 13.5px; fill: rgb(127, 127, 127); fill-opacity: 1; white-space: pre;">8</text></g><g class="ytick"><text text-anchor="end" x="90" y="4.725" transform="translate(0,106.92)" style="font-family: 'Courier New', monospace; font-size: 13.5px; fill: rgb(127, 127, 127); fill-opacity: 1; white-space: pre;">9</text></g><g class="ytick"><text text-anchor="end" x="85.5" y="3.3" transform="translate(0,101.43)" style="font-family: 'Courier New', monospace; font-size: 18px; fill: rgb(127, 127, 127); fill-opacity: 1; white-space: pre;">1000</text></g></g><g class="overaxes-above"/></g></g><g class="polarlayer"/><g class="ternarylayer"/><g class="geolayer"/><g class="funnelarealayer"/><g class="pielayer"/><g class="treemaplayer"/><g class="sunburstlayer"/><g class="glimages"/><defs id="topdefs-c5ba59"><g class="clips"/></defs><g class="layer-above"><g class="imagelayer"/><g class="shapelayer"/></g><g class="infolayer"><g class="g-gtitle"><text class="gtitle" x="35" y="50" text-anchor="start" dy="0em" style="font-family: 'Courier New', monospace; font-size: 25px; fill: rgb(127, 127, 127); opacity: 1; font-weight: normal; white-space: pre;">Belgrade</text></g><g class="g-xtitle"><text class="xtitle" x="355.5" y="474.4" text-anchor="middle" style="font-family: 'Courier New', monospace; font-size: 22px; fill: rgb(127, 127, 127); opacity: 1; font-weight: normal; white-space: pre;">Total Confirmed Cases</text></g><g class="g-ytitle" transform="translate(6.119140625,0)"><text class="ytitle" transform="rotate(-90,11.881249999999994,260)" x="11.881249999999994" y="260" text-anchor="middle" style="font-family: 'Courier New', monospace; font-size: 22px; fill: rgb(127, 127, 127); opacity: 1; font-weight: normal; white-space: pre;">New Confirmed Cases in the last 7 days</text></g></g></svg>