<svg class="main-svg" xmlns="http://www.w3.org/2000/svg" xmlns:xlink="http://www.w3.org/1999/xlink" width="700" height="500" viewBox="0 0 700 500"><rect x="0" y="0" width="700" height="500" style="fill: rgb(255, 255, 255); fill-opacity: 1;"/><defs id="defs-da27e5"><g class="clips"><clipPath id="clipda27e5xyplot" class="plotclip"><rect width="533" height="320"/></clipPath><clipPath class="axesclip" id="clipda27e5x"><rect x="87" y="0" width="533" height="500"/></clipPath><clipPath class="axesclip" id="clipda27e5y"><rect x="0" y="100" width="700" height="320"/></clipPath><clipPath class="axesclip" id="clipda27e5xy"><rect x="87" y="100" width="533" height="320"/></clipPath></g><g class="gradients"/></defs><g class="bglayer"><rect class="bg" x="87" y="100" width="533" height="320" style="fill: rgb(229, 236, 246); fill-opacity: 1; stroke-width: 0;"/></g><g class="layer-below"><g class="imagelayer"/><g class="shapelayer"/></g><g class="cartesianlayer"><g class="subplot xy"><g class="layer-subplot"><g class="shapelayer"/><g class="imagelayer"/></g><g class="gridlayer"><g class="x"><path class="xgrid crisp" transform="translate(127.47999999999999,0)" d="M0,100v320" style="stroke: rgb(255, 255, 255); stroke-opacity: 1; stroke-width: 1px;"/><path class="xgrid crisp" transform="translate(180.98000000000002,0)" d="M0,100v320" style="stroke: rgb(255, 255, 255); stroke-opacity: 1; stroke-width: 1px;"/><path class="xgrid crisp" transform="translate(221.46,0)" d="M0,100v320" style="stroke: rgb(255, 255, 255); stroke-opacity: 1; stroke-width: 1px;"/><path class="xgrid crisp" transform="translate(261.94,0)" d="M0,100v320" style="stroke: rgb(255, 255, 255); stroke-opacity: 1; stroke-width: 1px;"/><path class="xgrid crisp" transform="translate(315.44,0)" d="M0,100v320" style="stroke: rgb(255, 255, 255); stroke-opacity: 1; stroke-width: 1px;"/><path class="xgrid crisp" transform="translate(355.92,0)" d="M0,100v320" style="stroke: rgb(255, 255, 255); stroke-opacity: 1; stroke-width: 1px;"/><path class="xgrid crisp" transform="translate(396.39,0)" d="M0,100v320" style="stroke: rgb(255, 255, 255); stroke-opacity: 1; stroke-width: 1px;"/><path class="xgrid crisp" transform="translate(449.9,0)" d="M0,100v320" style="stroke: rgb(255, 255, 255); stroke-opacity: 1; stroke-width: 1px;"/><path class="xgrid crisp" transform="translate(490.38,0)" d="M0,100v320" style="stroke: rgb(255, 255, 255); stroke-opacity: 1; stroke-width: 1px;"/><path class="xgrid crisp" transform="translate(530.85,0)" d="M0,100v320" style="stroke: rgb(255, 255, 255); stroke-opacity: 1; stroke-width: 1px;"/><path class="xgrid crisp" transform="translate(584.36,0)" d="M0,100v320" style="stroke: rgb(255, 255, 255); stroke-opacity: 1; stroke-width: 1px;"/></g><g class="y"><path class="ygrid crisp" transform="translate(0,404)" d="M87,0h533" style="stroke: rgb(255, 255, 255); stroke-opacity: 1; stroke-width: 1px;"/><path class="ygrid crisp" transform="translate(0,379.07)" d="M87,0h533" style="stroke: rgb(255, 255, 255); stroke-opacity: 1; stroke-width: 1px;"/><path class="ygrid crisp" transform="translate(0,346.11)" d="M87,0h533" style="stroke: rgb(255, 255, 255); stroke-opacity: 1; stroke-width: 1px;"/><path class="ygrid crisp" transform="translate(0,321.16999999999996)" d="M87,0h533" style="stroke: rgb(255, 255, 255); stroke-opacity: 1; stroke-width: 1px;"/><path class="ygrid crisp" transform="translate(0,296.24)" d="M87,0h533" style="stroke: rgb(255, 255, 255); stroke-opacity: 1; stroke-width: 1px;"/><path class="ygrid crisp" transform="translate(0,263.28)" d="M87,0h533" style="stroke: rgb(255, 255, 255); stroke-opacity: 1; stroke-width: 1px;"/><path class="ygrid crisp" transform="translate(0,238.35)" d="M87,0h533" style="stroke: rgb(255, 255, 255); stroke-opacity: 1; stroke-width: 1px;"/><path class="ygrid crisp" transform="translate(0,213.41)" d="M87,0h533" style="stroke: rgb(255, 255, 255); stroke-opacity: 1; stroke-width: 1px;"/><path class="ygrid crisp" transform="translate(0,180.45)" d="M87,0h533" style="stroke: rgb(255, 255, 255); stroke-opacity: 1; stroke-width: 1px;"/><path class="ygrid crisp" transform="translate(0,155.52)" d="M87,0h533" style="stroke: rgb(255, 255, 255); stroke-opacity: 1; stroke-width: 1px;"/><path class="ygrid crisp" transform="translate(0,130.59)" d="M87,0h533" style="stroke: rgb(255, 255, 255); stroke-opacity: 1; stroke-width: 1px;"/></g></g><g class="zerolinelayer"/><path class="xlines-below"/><path class="ylines-below"/><g class="overlines-below"/><g class="xaxislayer-below"/><g class="yaxislayer-below"/><g class="overaxes-below"/><g class="plot" transform="translate(87, 100)" clip-path="url('#clipda27e5xyplot')"><g class="scatterlayer mlayer"><g class="trace scatter tracef63bcf" style="stroke-miterlimit: 2; opacity: 1;"><g class="fills"/><g class="errorbars"/><g class="lines"><path class="js-line" d="M0,304L236.09,159.2L249.74,151.18L262.11,144.62L270.64,144.19L286.44,134.59L300.25,127.29L322.19,113.23L333.65,105.97L379.03,78.77L385.87,75.74L389.24,76.18L397.23,70.96L406.78,65.53L412.6,64.13L426.11,54.84L431.69,52.22L441.1,47.52L449.42,41.93L455.63,37.24L460.64,35.06L464.88,34.24L469.54,31.79L474.5,32.35L478.66,30.48L495.86,23.64L500.96,20.44L504.91,18.19L507.95,17.36L513.84,16L516.08,18.02L517.95,20.48L519.27,23.98L520.91,27.73L523.17,29.02L525.11,29.73L526.78,31.37L529.87,33.7L531.74,32.53L533,31.89" style="vector-effect: non-scaling-stroke; fill: none; stroke: rgb(99, 110, 250); stroke-opacity: 1; stroke-width: 2px; opacity: 1;"/></g><g class="points"/><g class="text"/></g></g></g><g class="overplot"/><path class="xlines-above crisp" d="M0,0" style="fill: none;"/><path class="ylines-above crisp" d="M0,0" style="fill: none;"/><g class="overlines-above"/><g class="xaxislayer-above"><g class="xtick"><text text-anchor="middle" x="0" y="439" transform="translate(87,0)" style="font-family: 'Courier New', monospace; font-size: 18px; fill: rgb(127, 127, 127); fill-opacity: 1; white-space: pre;">1</text></g><g class="xtick"><text text-anchor="middle" x="0" y="434.5" transform="translate(127.47999999999999,0)" style="font-family: 'Courier New', monospace; font-size: 13.5px; fill: rgb(127, 127, 127); fill-opacity: 1; white-space: pre;">2</text></g><g class="xtick"><text text-anchor="middle" x="0" y="434.5" transform="translate(180.98000000000002,0)" style="font-family: 'Courier New', monospace; font-size: 13.5px; fill: rgb(127, 127, 127); fill-opacity: 1; white-space: pre;">5</text></g><g class="xtick"><text text-anchor="middle" x="0" y="439" transform="translate(221.46,0)" style="font-family: 'Courier New', monospace; font-size: 18px; fill: rgb(127, 127, 127); fill-opacity: 1; white-space: pre;">10</text></g><g class="xtick"><text text-anchor="middle" x="0" y="434.5" transform="translate(261.94,0)" style="font-family: 'Courier New', monospace; font-size: 13.5px; fill: rgb(127, 127, 127); fill-opacity: 1; white-space: pre;">2</text></g><g class="xtick"><text text-anchor="middle" x="0" y="434.5" transform="translate(315.44,0)" style="font-family: 'Courier New', monospace; font-size: 13.5px; fill: rgb(127, 127, 127); fill-opacity: 1; white-space: pre;">5</text></g><g class="xtick"><text text-anchor="middle" x="0" y="439" transform="translate(355.92,0)" style="font-family: 'Courier New', monospace; font-size: 18px; fill: rgb(127, 127, 127); fill-opacity: 1; white-space: pre;">100</text></g><g class="xtick"><text text-anchor="middle" x="0" y="434.5" transform="translate(396.39,0)" style="font-family: 'Courier New', monospace; font-size: 13.5px; fill: rgb(127, 127, 127); fill-opacity: 1; white-space: pre;">2</text></g><g class="xtick"><text text-anchor="middle" x="0" y="434.5" transform="translate(449.9,0)" style="font-family: 'Courier New', monospace; font-size: 13.5px; fill: rgb(127, 127, 127); fill-opacity: 1; white-space: pre;">5</text></g><g class="xtick"><text text-anchor="middle" x="0" y="439" transform="translate(490.38,0)" style="font-family: 'Courier New', monospace; font-size: 18px; fill: rgb(127, 127, 127); fill-opacity: 1; white-space: pre;">1000</text></g><g class="xtick"><text text-anchor="middle" x="0" y="434.5" transform="translate(530.85,0)" style="font-family: 'Courier New', monospace; font-size: 13.5px; fill: rgb(127, 127, 127); fill-opacity: 1; white-space: pre;">2</text></g><g class="xtick"><text text-anchor="middle" x="0" y="434.5" transform="translate(584.36,0)" style="font-family: 'Courier New', monospace; font-size: 13.5px; fill: rgb(127, 127, 127); fill-opacity: 1; white-space: pre;">5</text></g></g><g class="yaxislayer-above"><g class="ytick"><text text-anchor="end" x="86" y="6.3" transform="translate(0,404)" style="font-family: 'Courier New', monospace; font-size: 18px; fill: rgb(127, 127, 127); fill-opacity: 1; white-space: pre;">1</text></g><g class="ytick"><text text-anchor="end" x="86" y="4.725" transform="translate(0,379.07)" style="font-family: 'Courier New', monospace; font-size: 13.5px; fill: rgb(127, 127, 127); fill-opacity: 1; white-space: pre;">2</text></g><g class="ytick"><text text-anchor="end" x="86" y="4.725" transform="translate(0,346.11)" style="font-family: 'Courier New', monospace; font-size: 13.5px; fill: rgb(127, 127, 127); fill-opacity: 1; white-space: pre;">5</text></g><g class="ytick"><text text-anchor="end" x="86" y="6.3" transform="translate(0,321.16999999999996)" style="font-family: 'Courier New', monospace; font-size: 18px; fill: rgb(127, 127, 127); fill-opacity: 1; white-space: pre;">10</text></g><g class="ytick"><text text-anchor="end" x="86" y="4.725" transform="translate(0,296.24)" style="font-family: 'Courier New', monospace; font-size: 13.5px; fill: rgb(127, 127, 127); fill-opacity: 1; white-space: pre;">2</text></g><g class="ytick"><text text-anchor="end" x="86" y="4.725" transform="translate(0,263.28)" style="font-family: 'Courier New', monospace; font-size: 13.5px; fill: rgb(127, 127, 127); fill-opacity: 1; white-space: pre;">5</text></g><g class="ytick"><text text-anchor="end" x="86" y="6.3" transform="translate(0,238.35)" style="font-family: 'Courier New', monospace; font-size: 18px; fill: rgb(127, 127, 127); fill-opacity: 1; white-space: pre;">100</text></g><g class="ytick"><text text-anchor="end" x="86" y="4.725" transform="translate(0,213.41)" style="font-family: 'Courier New', monospace; font-size: 13.5px; fill: rgb(127, 127, 127); fill-opacity: 1; white-space: pre;">2</text></g><g class="ytick"><text text-anchor="end" x="86" y="4.725" transform="translate(0,180.45)" style="font-family: 'Courier New', monospace; font-size: 13.5px; fill: rgb(127, 127, 127); fill-opacity: 1; white-space: pre;">5</text></g><g class="ytick"><text text-anchor="end" x="86" y="6.3" transform="translate(0,155.52)" style="font-family: 'Courier New', monospace; font-size: 18px; fill: rgb(127, 127, 127); fill-opacity: 1; white-space: pre;">1000</text></g><g class="ytick"><text text-anchor="end" x="86" y="4.725" transform="translate(0,130.59)" style="font-family: 'Courier New', monospace; font-size: 13.5px; fill: rgb(127, 127, 127); fill-opacity: 1; white-space: pre;">2</text></g></g><g class="overaxes-above"/></g></g><g class="polarlayer"/><g class="ternarylayer"/><g class="geolayer"/><g class="funnelarealayer"/><g class="pielayer"/><g class="treemaplayer"/><g class="sunburstlayer"/><g class="glimages"/><defs id="topdefs-da27e5"><g class="clips"/></defs><g class="layer-above"><g class="imagelayer"/><g class="shapelayer"/></g><g class="infolayer"><g class="g-gtitle"><text class="gtitle" x="35" y="50" text-anchor="start" dy="0em" style="font-family: 'Courier New', monospace; font-size: 25px; fill: rgb(127, 127, 127); opacity: 1; font-weight: normal; white-space: pre;">Serbia</text></g><g class="g-xtitle"><text class="xtitle" x="353.5" y="474.4" text-anchor="middle" style="font-family: 'Courier New', monospace; font-size: 22px; fill: rgb(127, 127, 127); opacity: 1; font-weight: normal; white-space: pre;">Total Confirmed Cases</text></g><g class="g-ytitle" transform="translate(5.619140625,0)"><text class="ytitle" transform="rotate(-90,12.381249999999994,260)" x="12.381249999999994" y="260" text-anchor="middle" style="font-family: 'Courier New', monospace; font-size: 22px; fill: rgb(127, 127, 127); opacity: 1; font-weight: normal; white-space: pre;">New Confirmed Cases in the last 7 days</text></g></g></svg>